<mxfile host="app.diagrams.net" modified="2022-10-16T13:09:11.400Z" agent="5.0 (Windows NT 10.0; Win64; x64) AppleWebKit/537.36 (KHTML, like Gecko) Chrome/106.0.0.0 Safari/537.36" etag="Vhx-XfwC5z-50rVEp9OM" version="18.0.7" type="github">
  <diagram id="V4jYS8Cx0HoniuE-XB6-" name="Page-1">
    <mxGraphModel dx="2128" dy="1639" grid="1" gridSize="10" guides="1" tooltips="1" connect="1" arrows="1" fold="1" page="1" pageScale="1" pageWidth="850" pageHeight="1100" math="0" shadow="0">
      <root>
        <mxCell id="0" />
        <mxCell id="1" parent="0" />
        <mxCell id="VJMz_R_mShoQIZPHi_DP-19" style="edgeStyle=orthogonalEdgeStyle;rounded=0;orthogonalLoop=1;jettySize=auto;html=1;entryX=0;entryY=0.5;entryDx=0;entryDy=0;entryPerimeter=0;" edge="1" parent="1" source="VJMz_R_mShoQIZPHi_DP-1" target="VJMz_R_mShoQIZPHi_DP-8">
          <mxGeometry relative="1" as="geometry">
            <Array as="points">
              <mxPoint x="-410" y="410" />
              <mxPoint x="-410" y="190" />
            </Array>
          </mxGeometry>
        </mxCell>
        <mxCell id="VJMz_R_mShoQIZPHi_DP-22" style="edgeStyle=orthogonalEdgeStyle;rounded=0;orthogonalLoop=1;jettySize=auto;html=1;exitX=0;exitY=0.5;exitDx=0;exitDy=0;entryX=0;entryY=0.5;entryDx=0;entryDy=0;entryPerimeter=0;" edge="1" parent="1" source="VJMz_R_mShoQIZPHi_DP-1" target="VJMz_R_mShoQIZPHi_DP-7">
          <mxGeometry relative="1" as="geometry">
            <Array as="points">
              <mxPoint x="142" y="410" />
              <mxPoint x="-410" y="410" />
              <mxPoint x="-410" y="150" />
            </Array>
          </mxGeometry>
        </mxCell>
        <mxCell id="VJMz_R_mShoQIZPHi_DP-23" style="edgeStyle=orthogonalEdgeStyle;rounded=0;orthogonalLoop=1;jettySize=auto;html=1;exitX=0;exitY=0.5;exitDx=0;exitDy=0;entryX=0;entryY=0.5;entryDx=0;entryDy=0;entryPerimeter=0;" edge="1" parent="1" source="VJMz_R_mShoQIZPHi_DP-1" target="VJMz_R_mShoQIZPHi_DP-6">
          <mxGeometry relative="1" as="geometry">
            <Array as="points">
              <mxPoint x="142" y="410" />
              <mxPoint x="-410" y="410" />
              <mxPoint x="-410" y="110" />
            </Array>
          </mxGeometry>
        </mxCell>
        <mxCell id="VJMz_R_mShoQIZPHi_DP-24" style="edgeStyle=orthogonalEdgeStyle;rounded=0;orthogonalLoop=1;jettySize=auto;html=1;exitX=0;exitY=0.5;exitDx=0;exitDy=0;entryX=0;entryY=0.5;entryDx=0;entryDy=0;entryPerimeter=0;" edge="1" parent="1" source="VJMz_R_mShoQIZPHi_DP-1" target="VJMz_R_mShoQIZPHi_DP-5">
          <mxGeometry relative="1" as="geometry">
            <Array as="points">
              <mxPoint x="-410" y="410" />
              <mxPoint x="-410" y="70" />
            </Array>
          </mxGeometry>
        </mxCell>
        <mxCell id="VJMz_R_mShoQIZPHi_DP-25" style="edgeStyle=orthogonalEdgeStyle;rounded=0;orthogonalLoop=1;jettySize=auto;html=1;exitX=0;exitY=0.5;exitDx=0;exitDy=0;entryX=0;entryY=0.5;entryDx=0;entryDy=0;entryPerimeter=0;" edge="1" parent="1" source="VJMz_R_mShoQIZPHi_DP-1" target="VJMz_R_mShoQIZPHi_DP-4">
          <mxGeometry relative="1" as="geometry">
            <Array as="points">
              <mxPoint x="142" y="410" />
              <mxPoint x="-410" y="410" />
              <mxPoint x="-410" y="30" />
            </Array>
          </mxGeometry>
        </mxCell>
        <mxCell id="VJMz_R_mShoQIZPHi_DP-1" value="Exo Skeleton" style="swimlane;startSize=23;fillColor=#E5CCFF;" vertex="1" parent="1">
          <mxGeometry x="142" y="320" width="298" height="150" as="geometry" />
        </mxCell>
        <mxCell id="VJMz_R_mShoQIZPHi_DP-32" value="The actual implementation - i.e. the exo skeleton with patient inside. Implemented with sensors for Activation_Net inputs" style="rounded=0;whiteSpace=wrap;html=1;" vertex="1" parent="VJMz_R_mShoQIZPHi_DP-1">
          <mxGeometry x="54" y="50" width="190" height="80" as="geometry" />
        </mxCell>
        <mxCell id="VJMz_R_mShoQIZPHi_DP-2" value="Torque_Actor" style="swimlane;fillColor=#FF9999;" vertex="1" parent="1">
          <mxGeometry x="416" y="19" width="288" height="261" as="geometry" />
        </mxCell>
        <mxCell id="VJMz_R_mShoQIZPHi_DP-30" value="Deep Neural Net (DNN) which maps exo parameters and Activation_Net muscle activation predictions to knee/hip exo torques" style="rounded=0;whiteSpace=wrap;html=1;" vertex="1" parent="VJMz_R_mShoQIZPHi_DP-2">
          <mxGeometry x="49" y="80.5" width="190" height="91" as="geometry" />
        </mxCell>
        <mxCell id="VJMz_R_mShoQIZPHi_DP-4" value="Joint positions" style="html=1;shadow=0;dashed=0;align=center;verticalAlign=middle;shape=mxgraph.arrows2.arrow;dy=0.6;dx=40;notch=0;fillColor=#E5CCFF;" vertex="1" parent="1">
          <mxGeometry x="-312" y="10" width="170" height="40" as="geometry" />
        </mxCell>
        <mxCell id="VJMz_R_mShoQIZPHi_DP-5" value="Joint velocities" style="html=1;shadow=0;dashed=0;align=center;verticalAlign=middle;shape=mxgraph.arrows2.arrow;dy=0.6;dx=40;notch=0;fillColor=#E5CCFF;" vertex="1" parent="1">
          <mxGeometry x="-312" y="50" width="170" height="40" as="geometry" />
        </mxCell>
        <mxCell id="VJMz_R_mShoQIZPHi_DP-6" value="Joint accelerations" style="html=1;shadow=0;dashed=0;align=center;verticalAlign=middle;shape=mxgraph.arrows2.arrow;dy=0.6;dx=40;notch=0;fillColor=#E5CCFF;" vertex="1" parent="1">
          <mxGeometry x="-312" y="90" width="170" height="40" as="geometry" />
        </mxCell>
        <mxCell id="VJMz_R_mShoQIZPHi_DP-7" value="Applied torque" style="html=1;shadow=0;dashed=0;align=center;verticalAlign=middle;shape=mxgraph.arrows2.arrow;dy=0.6;dx=40;notch=0;fillColor=#E5CCFF;" vertex="1" parent="1">
          <mxGeometry x="-312" y="130" width="170" height="40" as="geometry" />
        </mxCell>
        <mxCell id="VJMz_R_mShoQIZPHi_DP-8" value="Interaction torque" style="html=1;shadow=0;dashed=0;align=center;verticalAlign=middle;shape=mxgraph.arrows2.arrow;dy=0.6;dx=40;notch=0;fillColor=#E5CCFF;" vertex="1" parent="1">
          <mxGeometry x="-312" y="170" width="170" height="40" as="geometry" />
        </mxCell>
        <mxCell id="VJMz_R_mShoQIZPHi_DP-9" value="Anthropometric measures" style="html=1;shadow=0;dashed=0;align=center;verticalAlign=middle;shape=mxgraph.arrows2.arrow;dy=0.6;dx=40;notch=0;fillColor=#99FF99;" vertex="1" parent="1">
          <mxGeometry x="-312" y="210" width="170" height="40" as="geometry" />
        </mxCell>
        <mxCell id="VJMz_R_mShoQIZPHi_DP-10" value="Normalised vector of predicted muscle activations" style="html=1;shadow=0;dashed=0;align=center;verticalAlign=middle;shape=mxgraph.arrows2.arrow;dy=0.6;dx=40;notch=0;fillColor=#99FFFF;" vertex="1" parent="1">
          <mxGeometry x="130" y="129" width="286" height="40" as="geometry" />
        </mxCell>
        <mxCell id="VJMz_R_mShoQIZPHi_DP-11" value="Joint positions" style="html=1;shadow=0;dashed=0;align=center;verticalAlign=middle;shape=mxgraph.arrows2.arrow;dy=0.6;dx=40;notch=0;fillColor=#E5CCFF;" vertex="1" parent="1">
          <mxGeometry x="246" y="9" width="170" height="40" as="geometry" />
        </mxCell>
        <mxCell id="VJMz_R_mShoQIZPHi_DP-12" value="Joint velocities" style="html=1;shadow=0;dashed=0;align=center;verticalAlign=middle;shape=mxgraph.arrows2.arrow;dy=0.6;dx=40;notch=0;fillColor=#E5CCFF;" vertex="1" parent="1">
          <mxGeometry x="246" y="49" width="170" height="40" as="geometry" />
        </mxCell>
        <mxCell id="VJMz_R_mShoQIZPHi_DP-13" value="Joint accelerations" style="html=1;shadow=0;dashed=0;align=center;verticalAlign=middle;shape=mxgraph.arrows2.arrow;dy=0.6;dx=40;notch=0;fillColor=#E5CCFF;" vertex="1" parent="1">
          <mxGeometry x="246" y="89" width="170" height="40" as="geometry" />
        </mxCell>
        <mxCell id="VJMz_R_mShoQIZPHi_DP-14" value="Interaction torque" style="html=1;shadow=0;dashed=0;align=center;verticalAlign=middle;shape=mxgraph.arrows2.arrow;dy=0.6;dx=40;notch=0;fillColor=#E5CCFF;" vertex="1" parent="1">
          <mxGeometry x="246" y="169" width="170" height="40" as="geometry" />
        </mxCell>
        <mxCell id="VJMz_R_mShoQIZPHi_DP-15" value="Anthropometric measures" style="html=1;shadow=0;dashed=0;align=center;verticalAlign=middle;shape=mxgraph.arrows2.arrow;dy=0.6;dx=40;notch=0;fillColor=#99FF99;" vertex="1" parent="1">
          <mxGeometry x="246" y="209" width="170" height="40" as="geometry" />
        </mxCell>
        <mxCell id="VJMz_R_mShoQIZPHi_DP-16" value="Activation_Net" style="swimlane;startSize=23;fillColor=#99FFFF;" vertex="1" parent="1">
          <mxGeometry x="-140" y="18" width="270" height="262" as="geometry" />
        </mxCell>
        <mxCell id="VJMz_R_mShoQIZPHi_DP-29" value="Deep Neural Net (DNN) which maps exo parameters and patient measurements to muscle activations.&amp;nbsp;" style="rounded=0;whiteSpace=wrap;html=1;" vertex="1" parent="VJMz_R_mShoQIZPHi_DP-16">
          <mxGeometry x="40" y="80" width="190" height="90" as="geometry" />
        </mxCell>
        <mxCell id="VJMz_R_mShoQIZPHi_DP-17" value="Joint Torques" style="html=1;shadow=0;dashed=0;align=center;verticalAlign=middle;shape=mxgraph.arrows2.bendArrow;dy=15;dx=38;notch=0;arrowHead=55;rounded=0;flipH=1;flipV=1;fillColor=#FF9999;" vertex="1" parent="1">
          <mxGeometry x="440" y="280" width="160" height="160" as="geometry" />
        </mxCell>
        <mxCell id="VJMz_R_mShoQIZPHi_DP-33" style="edgeStyle=orthogonalEdgeStyle;rounded=0;orthogonalLoop=1;jettySize=auto;html=1;exitX=0.5;exitY=0;exitDx=0;exitDy=0;entryX=0;entryY=0.5;entryDx=0;entryDy=0;entryPerimeter=0;" edge="1" parent="1" source="VJMz_R_mShoQIZPHi_DP-27" target="VJMz_R_mShoQIZPHi_DP-9">
          <mxGeometry relative="1" as="geometry" />
        </mxCell>
        <mxCell id="VJMz_R_mShoQIZPHi_DP-27" value="Physiotherapist (configured at beginning of session)" style="rounded=0;whiteSpace=wrap;html=1;fillColor=#99FF99;" vertex="1" parent="1">
          <mxGeometry x="-400" y="259" width="120" height="51" as="geometry" />
        </mxCell>
        <mxCell id="VJMz_R_mShoQIZPHi_DP-35" value="&lt;font style=&quot;font-size: 36px;&quot;&gt;Implementation&lt;/font&gt;" style="rounded=0;whiteSpace=wrap;html=1;strokeColor=#000000;fillColor=#E1D5E7;" vertex="1" parent="1">
          <mxGeometry x="-280" y="-50" width="920" height="50" as="geometry" />
        </mxCell>
      </root>
    </mxGraphModel>
  </diagram>
</mxfile>
